<mxfile host="app.diagrams.net" modified="2024-01-28T04:11:18.463Z" agent="Mozilla/5.0 (Windows NT 10.0; Win64; x64) AppleWebKit/537.36 (KHTML, like Gecko) Chrome/120.0.0.0 Safari/537.36" etag="Rrhb2Quj7b9DoThzNXcX" version="22.1.21" type="device">
  <diagram name="第 1 页" id="zniWOHq3nNF5tIcLqT36">
    <mxGraphModel dx="821" dy="412" grid="1" gridSize="10" guides="1" tooltips="1" connect="1" arrows="1" fold="1" page="1" pageScale="1" pageWidth="827" pageHeight="1169" math="0" shadow="0">
      <root>
        <mxCell id="0" />
        <mxCell id="1" parent="0" />
        <mxCell id="e0-VFRiCHxq82Di6Myi2-7" style="edgeStyle=orthogonalEdgeStyle;rounded=0;orthogonalLoop=1;jettySize=auto;html=1;" edge="1" parent="1" source="e0-VFRiCHxq82Di6Myi2-1" target="e0-VFRiCHxq82Di6Myi2-2">
          <mxGeometry relative="1" as="geometry" />
        </mxCell>
        <mxCell id="e0-VFRiCHxq82Di6Myi2-1" value="由歷史結果檔取出前一天抽中的主題&lt;br&gt;(避免與前一天的主題重複)" style="rounded=1;whiteSpace=wrap;html=1;" vertex="1" parent="1">
          <mxGeometry x="20" y="140" width="210" height="60" as="geometry" />
        </mxCell>
        <mxCell id="e0-VFRiCHxq82Di6Myi2-8" style="edgeStyle=orthogonalEdgeStyle;rounded=0;orthogonalLoop=1;jettySize=auto;html=1;" edge="1" parent="1" source="e0-VFRiCHxq82Di6Myi2-2" target="e0-VFRiCHxq82Di6Myi2-3">
          <mxGeometry relative="1" as="geometry" />
        </mxCell>
        <mxCell id="e0-VFRiCHxq82Di6Myi2-2" value="由主題清單excel中隨機抽選非前一天的主題" style="rounded=1;whiteSpace=wrap;html=1;" vertex="1" parent="1">
          <mxGeometry x="360" y="140" width="250" height="60" as="geometry" />
        </mxCell>
        <mxCell id="e0-VFRiCHxq82Di6Myi2-9" style="edgeStyle=orthogonalEdgeStyle;rounded=0;orthogonalLoop=1;jettySize=auto;html=1;" edge="1" parent="1" source="e0-VFRiCHxq82Di6Myi2-3" target="e0-VFRiCHxq82Di6Myi2-4">
          <mxGeometry relative="1" as="geometry" />
        </mxCell>
        <mxCell id="e0-VFRiCHxq82Di6Myi2-3" value="依抽中的主題產製prompt" style="rounded=1;whiteSpace=wrap;html=1;" vertex="1" parent="1">
          <mxGeometry x="755" y="140" width="170" height="60" as="geometry" />
        </mxCell>
        <mxCell id="e0-VFRiCHxq82Di6Myi2-10" style="edgeStyle=orthogonalEdgeStyle;rounded=0;orthogonalLoop=1;jettySize=auto;html=1;" edge="1" parent="1" source="e0-VFRiCHxq82Di6Myi2-4" target="e0-VFRiCHxq82Di6Myi2-5">
          <mxGeometry relative="1" as="geometry" />
        </mxCell>
        <mxCell id="e0-VFRiCHxq82Di6Myi2-4" value="透過爬蟲將prompt丟入企業版chatgpt" style="rounded=1;whiteSpace=wrap;html=1;" vertex="1" parent="1">
          <mxGeometry x="730" y="350" width="220" height="60" as="geometry" />
        </mxCell>
        <mxCell id="e0-VFRiCHxq82Di6Myi2-11" style="edgeStyle=orthogonalEdgeStyle;rounded=0;orthogonalLoop=1;jettySize=auto;html=1;entryX=1;entryY=0.5;entryDx=0;entryDy=0;" edge="1" parent="1" source="e0-VFRiCHxq82Di6Myi2-5" target="e0-VFRiCHxq82Di6Myi2-6">
          <mxGeometry relative="1" as="geometry" />
        </mxCell>
        <mxCell id="e0-VFRiCHxq82Di6Myi2-5" value="串接通訊軟體API，將chatgpt提供之tips分享至公司群組。" style="rounded=1;whiteSpace=wrap;html=1;" vertex="1" parent="1">
          <mxGeometry x="325" y="350" width="320" height="60" as="geometry" />
        </mxCell>
        <mxCell id="e0-VFRiCHxq82Di6Myi2-12" style="edgeStyle=orthogonalEdgeStyle;rounded=0;orthogonalLoop=1;jettySize=auto;html=1;" edge="1" parent="1" source="e0-VFRiCHxq82Di6Myi2-6" target="e0-VFRiCHxq82Di6Myi2-1">
          <mxGeometry relative="1" as="geometry" />
        </mxCell>
        <mxCell id="e0-VFRiCHxq82Di6Myi2-6" value="將本日產出之結果存入歷史結果檔" style="rounded=1;whiteSpace=wrap;html=1;" vertex="1" parent="1">
          <mxGeometry x="20" y="350" width="210" height="60" as="geometry" />
        </mxCell>
        <mxCell id="e0-VFRiCHxq82Di6Myi2-13" value="掛排程每日早上10:00啟動" style="text;html=1;strokeColor=none;fillColor=none;align=center;verticalAlign=middle;whiteSpace=wrap;rounded=0;" vertex="1" parent="1">
          <mxGeometry x="80" y="110" width="150" height="30" as="geometry" />
        </mxCell>
      </root>
    </mxGraphModel>
  </diagram>
</mxfile>
